<svg width="19" height="19" viewBox="0 0 19 19" fill="none" xmlns="http://www.w3.org/2000/svg">
<path fill-rule="evenodd" clip-rule="evenodd" d="M2.02672 6.65068C2.17743 4.8382 3.00938 3.14822 4.35743 1.91619C5.70548 0.684163 7.47107 0.000175446 9.30372 0L9.69619 0C11.5288 0.000175446 13.2944 0.684163 14.6425 1.91619C15.9905 3.14822 16.8225 4.8382 16.9732 6.65068C17.1416 8.67418 16.512 10.6836 15.2171 12.2556L10.8627 17.5404C10.6977 17.7409 10.4898 17.9024 10.2541 18.0133C10.0184 18.1243 9.76081 18.1818 9.49996 18.1818C9.23911 18.1818 8.98152 18.1243 8.74583 18.0133C8.51015 17.9024 8.30226 17.7409 8.13722 17.5404L3.78374 12.2556C2.48851 10.6837 1.85861 8.6743 2.02672 6.65068ZM9.49996 3.38078C8.35546 3.38078 7.25784 3.83196 6.44856 4.63505C5.63928 5.43814 5.18463 6.52737 5.18463 7.66311C5.18463 8.79886 5.63928 9.88808 6.44856 10.6912C7.25784 11.4943 8.35546 11.9454 9.49996 11.9454C10.6445 11.9454 11.7421 11.4943 12.5514 10.6912C13.3606 9.88808 13.8153 8.79886 13.8153 7.66311C13.8153 6.52737 13.3606 5.43814 12.5514 4.63505C11.7421 3.83196 10.6445 3.38078 9.49996 3.38078Z" fill="white"/>
<circle cx="9.49973" cy="7.64085" r="2.93821" fill="white"/>
</svg>
