<svg width="19" height="19" viewBox="0 0 19 19" fill="none" xmlns="http://www.w3.org/2000/svg">
<g clip-path="url(#clip0_2005_1811)">
<path d="M17.2188 2.96875H1.78125C1.45283 2.96875 1.1875 3.23408 1.1875 3.5625V15.4375C1.1875 15.7659 1.45283 16.0312 1.78125 16.0312H17.2188C17.5472 16.0312 17.8125 15.7659 17.8125 15.4375V3.5625C17.8125 3.23408 17.5472 2.96875 17.2188 2.96875ZM16.4766 5.02461V14.6953H2.52344V5.02461L2.01133 4.62568L2.74053 3.68867L3.53467 4.30654H15.4672L16.2613 3.68867L16.9905 4.62568L16.4766 5.02461ZM15.4672 4.30469L9.5 8.94336L3.53281 4.30469L2.73867 3.68682L2.00947 4.62383L2.52158 5.02275L8.85986 9.95088C9.04214 10.0925 9.26639 10.1694 9.49722 10.1694C9.72804 10.1694 9.95229 10.0925 10.1346 9.95088L16.4766 5.02461L16.9887 4.62568L16.2595 3.68867L15.4672 4.30469Z" fill="white"/>
</g>
<defs>
<clipPath id="clip0_2005_1811">
<rect x="1" y="3" width="17" height="13" rx="1" fill="white"/>
</clipPath>
</defs>
</svg>
