<svg width="19" height="19" viewBox="0 0 19 19" fill="none" xmlns="http://www.w3.org/2000/svg">
<path fill-rule="evenodd" clip-rule="evenodd" d="M16.0404 13.8072C15.7094 13.5464 14.0832 12.2834 13.7717 12.0898C13.4601 11.8974 13.2273 11.7858 12.904 12.102C12.5823 12.4172 11.705 13.0954 11.4397 13.295C11.1729 13.4955 10.9523 13.4804 10.6222 13.2211C10.2927 12.9594 9.1858 12.3259 8.03921 10.7844C7.14737 9.58432 6.65757 8.22992 6.51975 7.81766C6.38168 7.40662 6.61394 7.24781 6.83666 7.10374C7.03694 6.9743 7.29398 6.75244 7.52312 6.57754C7.75253 6.4014 7.84514 6.2611 8.019 6.04121C8.19384 5.82281 8.17634 5.5965 8.12169 5.39334C8.06828 5.19044 7.70816 3.23241 7.55374 2.43443C7.40388 1.65799 7.07992 1.69214 6.85691 1.6328C6.64331 1.57798 6.39842 1.52437 6.15301 1.47323C5.9076 1.42208 5.48949 1.43018 5.07576 1.7275C4.66104 2.02333 3.52557 2.71208 3.14947 4.51667C2.77363 6.32002 3.72913 8.33778 3.86265 8.62173C3.99642 8.90445 5.63661 13.1101 9.00048 15.4676C9.80181 16.0284 10.4402 16.397 10.9394 16.6761C11.7635 17.14 12.5749 17.2679 13.2293 17.3052C13.9576 17.3476 15.593 16.8724 16.0788 16.0804C16.5633 15.2882 16.7163 14.5543 16.6565 14.3822C16.5966 14.2101 16.3702 14.0677 16.0392 13.807" fill="white"/>
</svg>
