<svg viewBox="0 0 24 24" xmlns="http://www.w3.org/2000/svg" xmlns:xlink="http://www.w3.org/1999/xlink" width="24.000000" height="24.000000" fill="rgb(0,0,0)">
	<path id="Vector" d="M23.5023 11.8151L13.2734 1.59144L12.5877 0.905802C12.4315 0.750612 12.2203 0.663513 12 0.663513C11.7798 0.663513 11.5686 0.750612 11.4124 0.905802L0.497791 11.8151C0.337715 11.9745 0.211205 12.1644 0.125727 12.3736C0.0402491 12.5827 -0.0024636 12.8069 0.000109727 13.0328C0.0106987 13.9646 0.78634 14.7085 1.71817 14.7085L2.84325 14.7085L2.84325 23.3306L21.1569 23.3306L21.1569 14.7085L22.3058 14.7085C22.7584 14.7085 23.1846 14.5311 23.505 14.2108C23.6627 14.0536 23.7876 13.8667 23.8726 13.6608C23.9576 13.455 24.0009 13.2343 24 13.0116C24 12.5616 23.8226 12.1354 23.5023 11.8151ZM13.4825 21.4246L10.5176 21.4246L10.5176 16.0242L13.4825 16.0242L13.4825 21.4246ZM19.2508 12.8025L19.2508 21.4246L15.1767 21.4246L15.1767 15.3889C15.1767 14.8038 14.7029 14.33 14.1178 14.33L9.88226 14.33C9.29722 14.33 8.82336 14.8038 8.82336 15.3889L8.82336 21.4246L4.74926 21.4246L4.74926 12.8025L2.20791 12.8025L12.0027 3.01565L12.6142 3.62717L21.7948 12.8025L19.2508 12.8025Z" fill-rule="nonzero" />
</svg>
