<svg viewBox="0 0 24 23.339" xmlns="http://www.w3.org/2000/svg" xmlns:xlink="http://www.w3.org/1999/xlink" width="24.000000" height="23.338989" stroke="rgb(0,0,0)" fill="none">
	<path id="Vector" d="M7.17099 2.27072C6.78099 1.83312 6.06599 1.83506 5.61299 2.27656L2.83099 4.9868C2.00299 5.79297 1.76599 6.99006 2.24499 7.94988C5.10661 13.7117 9.88503 18.365 15.806 21.1559C16.792 21.6217 18.022 21.3912 18.85 20.585L21.658 17.8495C22.113 17.407 22.114 16.7078 21.66 16.3286L17.74 13.0563C17.33 12.714 16.693 12.7587 16.282 13.1593L14.918 14.4877C14.8482 14.5589 14.7562 14.6058 14.6563 14.6213C14.5564 14.6367 14.4541 14.6199 14.365 14.5733C12.1354 13.3247 10.286 11.5239 9.00499 9.35411C8.95702 9.26732 8.93964 9.16762 8.95554 9.0703C8.97144 8.97299 9.01972 8.88343 9.09299 8.81536L10.453 7.49185C10.865 7.08925 10.91 6.46785 10.554 6.06817L7.17099 2.27072Z" fill-rule="nonzero" stroke-linecap="round" stroke-linejoin="round" stroke-width="2" />
</svg>
