<svg viewBox="0 0 313.744 246.933" xmlns="http://www.w3.org/2000/svg" xmlns:xlink="http://www.w3.org/1999/xlink" width="313.744141" height="246.932678" fill="none" customFrame="#000000">
	<defs>
		<g id="pixso_custom_effect_1">
			<effect x="0.000000" y="0.000000" visibility="visible" fill="rgb(0,0,0)" fill-opacity="0.330000013" effectType="dropShadow" stdDeviation="5.7567687" radius="0" />
		</g>
		<filter id="filter_1" width="313.744141" height="58.707245" x="0.000000" y="99.783905" filterUnits="userSpaceOnUse" customEffect="url(#pixso_custom_effect_1)" color-interpolation-filters="sRGB">
			<feFlood flood-opacity="0" result="BackgroundImageFix" />
			<feOffset dx="0.000000" dy="0.000000" in="SourceAlpha" />
			<feGaussianBlur stdDeviation="1.9189229" />
			<feColorMatrix type="matrix" values="0 0 0 0 0 0 0 0 0 0 0 0 0 0 0 0 0 0 0.33 0 " />
			<feBlend result="effect_dropShadow_1" in2="BackgroundImageFix" mode="normal" />
			<feBlend result="shape" in="SourceGraphic" in2="effect_dropShadow_1" mode="normal" />
		</filter>
	</defs>
	<g id="Group 44">
		<ellipse id="Ellipse 13" rx="128.948410" ry="123.466331" cx="157.111008" cy="123.466331" fill="rgb(63,128,184)" />
		<ellipse id="Ellipse 13" rx="128.710052" ry="123.227982" cx="157.111008" cy="123.466331" stroke="rgb(63,128,184)" stroke-width="0.476704001" />
		<g id="Б в ">
			<path id="Ellipse 9" d="M279.203 78.4178C258.817 32.2924 211.746 7.62939e-06 156.936 7.62939e-06C142.685 7.62939e-06 128.958 2.18288 116.087 6.22419C116.087 6.22419 178.577 23.0244 191.18 28.3639C208.058 35.5145 210.993 40.9966 211.971 43.6184C212.95 46.2403 212.23 49.1477 211.971 52.6758C211.212 63.0188 205.571 67.8743 204.389 78.1795C203.953 81.9767 203.875 83.416 203.899 87.2368C209.347 92.5454 210.482 93.6723 222.734 92.9573C243.501 91.7452 279.203 78.4178 279.203 78.4178Z" fill="rgb(209.885,209.885,209.885)" fill-rule="evenodd" />
			<path id="Ellipse 7" d="M167.454 60.3031C157.181 55.4945 147.565 54.1059 134.433 54.1059C134.433 54.1059 179.195 38.3747 197.051 38.3747C209.526 38.3747 211.972 43.6185 211.972 43.6185C212.95 46.2403 212.231 49.1477 211.972 52.6758C211.213 63.0188 205.572 67.8743 204.389 78.1795C203.953 81.9767 203.876 83.416 203.9 87.2369C196.073 79.6096 196.168 79.4465 185.799 71.5056C179.869 66.9635 169.656 61.3335 167.454 60.3031Z" fill="rgb(193,193,193)" fill-rule="evenodd" />
			<path id="Ellipse 8" d="M134.434 54.106L29.7437 95.3409C41.5366 53.0507 73.5168 19.5911 116.088 6.22427C116.088 6.22427 178.578 23.0245 191.181 28.364C208.059 35.5145 210.994 40.9966 211.972 43.6185C211.972 43.6185 209.526 38.3748 197.052 38.3748C179.196 38.3748 134.434 54.106 134.434 54.106Z" fill="rgb(248,248,247)" fill-rule="evenodd" />
		</g>
		<g id="кр ни">
			<path id="Ellipse 10" d="M158.948 75.0146C139.082 30.891 93.2146 0 39.8048 0C25.9186 0 12.5422 2.08814 0 5.95407C0 5.95407 60.8933 22.0252 73.1741 27.133C89.6204 33.9732 92.4806 39.2174 93.434 41.7255C94.3874 44.2336 93.6862 47.0148 93.434 50.3898C92.6945 60.2839 87.1974 64.9287 86.0451 74.7866C85.6205 78.4191 85.5447 79.7959 85.5684 83.4509C90.8769 88.5291 91.9828 89.6072 103.922 88.9231C124.158 87.7637 158.948 75.0146 158.948 75.0146Z" fill="rgb(192,49,41)" fill-rule="evenodd" transform="matrix(-1,0,0,-1,197.598,246.933)" />
			<path id="Ellipse 11" d="M32.1775 20.9767C22.1667 16.3769 12.797 15.0485 0 15.0485C0 15.0485 43.6184 0 61.0181 0C73.1741 0 75.5576 5.01618 75.5576 5.01618C76.511 7.52426 75.8098 10.3055 75.5576 13.6805C74.8181 23.5746 69.321 28.2194 68.1687 38.0773C67.7441 41.7098 67.6683 43.0866 67.692 46.7416C60.0647 39.4454 60.1577 39.2894 50.0539 31.6931C44.2746 27.3481 34.3227 21.9624 32.1775 20.9767Z" fill="rgb(147,42,38)" fill-rule="evenodd" transform="matrix(-1,0,0,-1,179.721,210.223)" />
			<path id="Ellipse 12" d="M101.809 45.8038L0 85.0211C11.4916 44.5662 42.449 12.7867 83.9327 0C83.9327 0 144.826 16.0711 157.107 21.1789C173.553 28.0191 176.413 33.2633 177.367 35.7714C177.367 35.7714 174.983 30.7552 162.827 30.7552C145.428 30.7552 101.809 45.8038 101.809 45.8038Z" fill="rgb(205,62,48)" fill-rule="evenodd" transform="matrix(-1,0,0,-1,281.531,240.979)" />
		</g>
		<g filter="url(#filter_1)">
			<path id="АВАНГАРД" d="M5.75684 144.822L20.4576 105.541L29.7348 105.541L44.4832 144.822L34.6827 144.822L32.086 137.19L17.9637 137.19L15.3671 144.822L5.75684 144.822ZM50.6784 144.822L50.6784 105.541L66.854 105.541Q72.8485 105.541 76.1312 108.234Q77.1988 109.08 77.9242 110.156Q79.4615 112.437 79.4615 115.754Q79.4615 119.122 77.9191 121.484Q77.2775 122.466 76.3691 123.273C75.928 123.658 75.4549 124.001 74.95 124.303C76.0258 124.722 76.9746 125.277 77.7964 125.967C79.9214 127.688 80.9839 130.232 80.9839 133.599C80.9839 137.041 79.8421 139.772 77.5585 141.792C75.3066 143.812 72.0397 144.822 67.7579 144.822L50.6784 144.822ZM85.1296 144.822L99.8304 105.541L109.108 105.541L123.856 144.822L114.055 144.822L111.459 137.19L97.3366 137.19L94.7399 144.822L85.1296 144.822ZM139.471 144.822L130.051 144.822L130.051 105.541L139.471 105.541L139.471 120.299L152.316 120.299L152.316 105.541L161.736 105.541L161.736 144.822L152.316 144.822L152.316 129.502L139.471 129.502L139.471 144.822ZM171.271 144.822L171.271 105.541L195.677 105.541L195.629 114.351L180.548 114.351L180.548 144.822L171.271 144.822ZM192.388 144.822L207.089 105.541L216.366 105.541L231.114 144.822L221.314 144.822L218.717 137.19L204.595 137.19L201.998 144.822L192.388 144.822ZM237.31 144.822L237.31 105.541L252.534 105.541C255.578 105.541 258.195 106.121 260.384 107.28Q262.009 108.13 263.272 109.353L263.272 109.353L263.273 109.354Q264.597 110.636 265.522 112.331C266.727 114.501 267.33 117.082 267.33 120.075C267.33 123.03 266.727 125.593 265.522 127.763C264.316 129.933 262.604 131.616 260.384 132.813C258.195 133.973 255.578 134.553 252.534 134.553L246.729 134.553L246.729 144.822L237.31 144.822ZM270.665 136.012Q271.298 135.99 271.836 135.753Q272.561 135.433 273.114 134.721C273.844 133.786 274.415 132.495 274.827 130.849C275.271 129.203 275.588 127.258 275.779 125.013C276.001 122.768 276.159 120.318 276.254 117.662L276.635 105.541L303.468 105.541L303.468 136.012L307.987 136.012L307.987 152.734L299.376 152.734L299.376 144.822L278.062 144.822L278.062 152.734L269.404 152.734L269.404 136.012L270.665 136.012ZM59.9556 121.253L65.9501 121.253C67.2822 121.253 68.2813 120.935 68.9473 120.299C69.6134 119.626 69.9464 118.653 69.9464 117.381C69.9464 116.109 69.6134 115.155 68.9473 114.519C68.2813 113.846 67.2822 113.509 65.9501 113.509L59.9556 113.509L59.9556 121.253ZM246.729 125.799L251.963 125.799C253.929 125.799 255.388 125.294 256.34 124.283C257.323 123.273 257.815 121.87 257.815 120.075C257.815 118.242 257.323 116.82 256.34 115.81C255.388 114.8 253.929 114.295 251.963 114.295L246.729 114.295L246.729 125.799ZM294.19 136.012L294.19 114.351L284.628 114.351L284.485 118.616C284.421 120.898 284.295 123.03 284.104 125.013C283.946 126.996 283.708 128.81 283.391 130.456C283.105 132.102 282.709 133.524 282.201 134.721C282.007 135.195 281.794 135.625 281.562 136.012L294.19 136.012ZM108.671 128.997L104.398 116.437L100.124 128.997L108.671 128.997ZM29.2984 128.997L25.0249 116.437L20.7514 128.997L29.2984 128.997ZM215.929 128.997L211.656 116.437L207.382 128.997L215.929 128.997ZM59.9556 136.854L67.3773 136.854C68.7412 136.854 69.7561 136.517 70.4222 135.843Q70.4616 135.803 70.4996 135.762L70.5023 135.759Q71.4688 134.698 71.4688 132.757C71.4688 131.41 71.1199 130.419 70.4222 129.783C69.7561 129.109 68.7412 128.773 67.3773 128.773L59.9556 128.773L59.9556 136.854Z" fill="rgb(255,255,255)" fill-rule="evenodd" />
		</g>
	</g>
</svg>
