<svg viewBox="0 0 24 24" xmlns="http://www.w3.org/2000/svg" xmlns:xlink="http://www.w3.org/1999/xlink" width="24.000000" height="24.000000" stroke="rgb(0,0,0)" fill="none">
	<g id="Group">
		<path id="Vector" d="M4 20C4 20.5304 4.21071 21.0391 4.58579 21.4142C4.96086 21.7893 5.46957 22 6 22L18 22C18.5304 22 19.0391 21.7893 19.4142 21.4142C19.7893 21.0391 20 20.5304 20 20L20 8.342C20 8.07556 19.9467 7.81181 19.8433 7.56624C19.7399 7.32068 19.5885 7.09824 19.398 6.912L14.958 2.57C14.5844 2.20466 14.0826 2.00007 13.56 2L6 2C5.46957 2 4.96086 2.21071 4.58579 2.58579C4.21071 2.96086 4 3.46957 4 4L4 20ZM9 13L15 13M9 17L12 17" fill-rule="nonzero" stroke-linecap="round" stroke-linejoin="round" stroke-width="2" />
		<path id="Vector" d="M14 2L14 6C14 6.53043 14.2107 7.03914 14.5858 7.41421C14.9609 7.78929 15.4696 8 16 8L20 8" fill-rule="nonzero" stroke-linejoin="round" stroke-width="2" />
	</g>
</svg>
