<svg viewBox="0 0 23 24.0952" xmlns="http://www.w3.org/2000/svg" xmlns:xlink="http://www.w3.org/1999/xlink" width="23.000000" height="24.095215" fill="rgb(0,0,0)">
	<path id="Vector" d="M11.5 0.547607C5.14933 0.547607 0 5.69694 0 12.0476C0 18.3983 5.14933 23.5476 11.5 23.5476C17.8507 23.5476 23 18.3983 23 12.0476C23 5.69694 17.8507 0.547607 11.5 0.547607ZM11.5 21.5967C6.22746 21.5967 1.95089 17.3202 1.95089 12.0476C1.95089 6.77506 6.22746 2.4985 11.5 2.4985C16.7725 2.4985 21.0491 6.77506 21.0491 12.0476C21.0491 17.3202 16.7725 21.5967 11.5 21.5967ZM12.7244 11.4521L12.0724 11.3006L12.0724 7.85319C13.0479 7.98667 13.6511 8.59761 13.7538 9.34716C13.7666 9.44984 13.8539 9.52428 13.9566 9.52428L15.1092 9.52428C15.2298 9.52428 15.3248 9.41904 15.3145 9.29839C15.1579 7.69917 13.8411 6.67238 12.0827 6.49526L12.0827 5.65587C12.0827 5.54292 11.9903 5.45051 11.8773 5.45051L11.156 5.45051C11.0431 5.45051 10.9507 5.54292 10.9507 5.65587L10.9507 6.50296C9.13326 6.68009 7.71116 7.68377 7.71116 9.55765C7.71116 11.2929 8.98951 12.1298 10.332 12.4506L10.9661 12.6123L10.9661 16.2754C9.83147 16.1239 9.19487 15.5181 9.06395 14.7018C9.04855 14.6043 8.96127 14.5324 8.86116 14.5324L7.67522 14.5324C7.55458 14.5324 7.4596 14.6351 7.46987 14.7558C7.58538 16.1676 8.6558 17.4665 10.9404 17.6333L10.9404 18.4393C10.9404 18.5523 11.0328 18.6447 11.1458 18.6447L11.8748 18.6447C11.9877 18.6447 12.0801 18.5523 12.0801 18.4368L12.075 17.6231C14.0849 17.4459 15.5224 16.3704 15.5224 14.44C15.5199 12.6585 14.3878 11.8628 12.7244 11.4521ZM10.9635 11.0362C10.8198 10.9952 10.6991 10.9566 10.5785 10.9079C9.71083 10.5947 9.30781 10.089 9.30781 9.43701C9.30781 8.5052 10.0137 7.97384 10.9635 7.85319L10.9635 11.0362ZM12.0724 16.2831L12.0724 12.8511C12.152 12.8742 12.2239 12.8921 12.2983 12.9075C13.5125 13.2772 13.9206 13.7906 13.9206 14.5786C13.9206 15.5823 13.166 16.1856 12.0724 16.2831Z" fill-rule="nonzero" />
</svg>
